# xmcd CD database file
#
# Track frame offsets:
#	150
#	13670
#	24452
#	37152
#	56377
#	70465
#	84755
#	111462
#	131250
#	151575
#	171975
#	184350
#	202275
#	215852
#	234372
#
# Disc length: 3289 seconds
#
# Revision: 0
# Processed by: cddbd v1.5.1PL0 Copyright (c) Steve Scherf et al.
# Submitted via: CDex 1.51
#
DISCID=d40cd70f
DTITLE=吉田 拓郎 - LIKE A ROLLING STONE 1970〜1974／disc 1 - My Life,Your Life
DYEAR=1999
DGENRE=Folk
TTITLE0=今日までそして明日から
TTITLE1=まにあうかもしれない
TTITLE2=たどり着いたらいつも雨降り
TTITLE3=祭りのあと
TTITLE4=また会おう
TTITLE5=春だったね
TTITLE6=制服
TTITLE7=ビートルズが教えてくれた
TTITLE8=新しい朝
TTITLE9=人生を語らず
TTITLE10=おはよう
TTITLE11=知識
TTITLE12=子供に
TTITLE13=贈り物
TTITLE14=長い雨の後に
EXTD=YEAR: 1999/10/1
EXTT0=
EXTT1=
EXTT2=
EXTT3=
EXTT4=
EXTT5=
EXTT6=
EXTT7=
EXTT8=
EXTT9=
EXTT10=
EXTT11=
EXTT12=
EXTT13=
EXTT14=
PLAYORDER=
